PathFileType	4	(X/Y/Z)	Patient4_TMGait_0pt3_03_left_13.trc.trc
DataRate	CameraRate	NumFrames	NumMarkers	Units	OrigDataRate	OrigDataStartFrame	OrigNumFrames
56.000000000000	56.000000000000	4	33	mm	56.000000000000	124	       141
Frame#	Time	Sacral			L.Shoulder			Chest			R.Shoulder			Neck			R.ASIS			L.ASIS			R.Thigh.Superior			R.Thigh.Lateral			R.Thigh.Inferior			R.Patella			L.Thigh.Superior			L.Thigh.Lateral			L.Thigh.Inferior			L.Patella			L.Shank.Superior			L.Shank.Lateral			L.Shank.Inferior			R.Shank.Superior			R.Shank.Lateral			R.Shank.Inferior			R.Heel			R.Midfoot.Superior			R.Midfoot.Lateral			R.Toe			L.Heel			L.Midfoot.Lateral			L.Midfoot.Superior			L.Toe			L.Elbow			L.Wrist			R.Elbow			R.Wrist			
		X1	Y1	Z1	X2	Y2	Z2	X3	Y3	Z3	X4	Y4	Z4	X5	Y5	Z5	X6	Y6	Z6	X7	Y7	Z7	X8	Y8	Z8	X9	Y9	Z9	X10	Y10	Z10	X11	Y11	Z11	X12	Y12	Z12	X13	Y13	Z13	X14	Y14	Z14	X15	Y15	Z15	X16	Y16	Z16	X17	Y17	Z17	X18	Y18	Z18	X19	Y19	Z19	X20	Y20	Z20	X21	Y21	Z21	X22	Y22	Z22	X23	Y23	Z23	X24	Y24	Z24	X25	Y25	Z25	X26	Y26	Z26	X27	Y27	Z27	X28	Y28	Z28	X29	Y29	Z29	X30	Y30	Z30	X31	Y31	Z31	X32	Y32	Z32	X33	Y33	Z33	

124	25.886428571429	736.292479577941	1011.408300047584	561.867962672680	906.217831221372	1424.279824803307	345.158495989014	1035.939667708848	1348.068549534151	481.783742333758	998.983100374883	1431.067015006830	667.128631361152	926.405766111181	1486.496825291742	502.359199103863	977.092586841742	925.357447538439	634.098586980627	916.837838570191	955.805342211206	367.085491277567	978.436959099510	717.848852695348	595.885424466277	890.123546326438	617.737839938005	665.467591545212	942.637478209911	558.503897760857	573.365672412203	929.703158055482	469.800653830557	577.602584938852	981.990297904338	760.415614359699	387.293397415626	912.485403247781	638.001244452535	316.565580968579	1013.430511610362	570.147319389907	371.684569765709	1035.051425273982	508.682338036887	368.175354208743	1018.083056046599	440.482496673706	356.634053486969	952.184049462609	311.139755347904	303.845722576417	1042.169575875358	211.531135337997	354.023926432998	885.497472174459	387.403047256637	587.813294785538	805.606073858244	295.011956569346	657.414040696230	819.155468228786	197.386512997187	588.213758326106	658.187300324960	45.466955080784	569.156175237213	831.465679640925	94.816896297085	594.384445514333	745.143884445715	37.152764654208	638.867743464383	952.416585184195	40.793675575142	617.190508913224	956.373744166127	37.508369466604	389.236340398484	1031.176384039612	39.027971030713	309.730814013857	1106.554261414309	111.178113618735	332.665092457708	1238.139739034153	74.113835199133	306.622909024878	744.180300999922	1103.159411532825	274.066810944297	720.360260412695	842.779373434405	280.234631713852	1075.166220358340	1104.749428967931	796.968768820617	1297.345098671106	1185.471723425051	728.264894592411	
125	25.904285714286	737.490045927632	1010.739936512448	559.230930250205	907.124855103557	1422.911406804260	341.118782323474	1036.992197720831	1347.131804811536	477.851619618943	1000.143365696383	1430.616371141203	662.990258461580	927.334369396954	1485.641554332162	498.148764202901	978.345236532379	924.639277168117	631.747822490428	917.860123394387	954.498070480621	364.775091100048	978.377255791110	716.816177616893	593.967122923593	889.255173378890	617.303603140679	663.871834148082	941.135889199410	557.464508457418	572.054208532405	927.236899059859	468.846432780503	576.519571559870	982.572975821875	758.508467900775	384.515027648027	910.901598448272	636.028505200230	315.470869016696	1012.173636672623	568.459343222596	369.950457032834	1033.010164675306	506.938809608215	367.232209104628	1016.361956027262	438.525377667079	355.819170951548	950.109439750042	309.208684477069	304.000199599184	1039.944997486090	209.744097260677	354.393841815795	882.491181164213	386.768930240590	586.900860693481	802.006268297915	295.143936577510	657.011114639763	814.774713911893	197.254379795693	587.930849328994	652.919491350532	45.918909224583	569.250206555500	826.468071091685	95.076279870072	594.718358598837	739.890375426691	37.327508978162	638.918586180884	947.131444677971	40.596876288636	617.213526714113	953.071407397309	37.300455012861	390.229121508449	1027.592499453026	38.322105966160	310.401401681361	1104.057514398987	108.919116551121	333.745253344990	1234.999647569060	69.929386130768	307.109020923777	745.806760919644	1101.130282070611	271.437811267972	723.165177878819	840.430077355343	278.312137071467	1081.075312616299	1104.944862527229	791.408317635819	1300.605254113109	1191.011503178147	720.776073664174	
126	25.922142857143	738.797501449275	1010.123999775457	556.369477661313	908.140302237272	1421.595066782682	336.872890224586	1038.126601043127	1346.281457365608	473.759368388269	1001.306941808700	1430.246368221094	658.683956294551	928.295382367859	1484.858065612648	493.764516913353	979.729057916087	924.009586043186	629.182072292107	919.041409156898	953.352977767973	362.271774987926	978.607945264590	715.859862183951	591.880283001654	888.711118384366	616.910177392371	662.080792915862	940.028557461061	556.490301406203	570.558760450511	925.179317477681	467.908088135595	575.278367741747	983.748796420248	757.176252326278	381.837075817760	910.556547478924	634.503658046110	314.254125241465	1012.124459765682	567.423359795311	368.293197925562	1032.088933479499	505.512744870256	366.294586233370	1015.573458341612	436.689942718437	354.976480698041	948.435312226055	307.732898189718	303.928135481877	1037.399596849032	207.923558339637	354.723349243687	879.781209483764	386.165982339435	585.860313813007	798.638505877992	295.423264157869	656.537870060886	810.566983901479	197.226766906596	587.617898957986	647.711854486996	46.612145616177	569.376336167604	821.567322880670	95.368539567470	595.036248417642	734.699127070172	37.625402557044	638.984506184618	941.894409396574	40.350789987910	617.236665584242	948.488979589741	37.321521615451	391.124071400513	1022.721330686125	37.682265863184	310.957704728827	1100.487262608489	106.550822391327	334.729164858707	1230.703976121669	65.298064332565	307.454962836812	748.261737460167	1098.782207113570	268.337098524760	727.589305208550	837.689284386366	275.713992270797	1086.114571885677	1105.029655194088	785.854818183167	1303.758560090245	1194.926131475099	713.778486766586	
127	25.940000000000	740.205553191613	1009.634492251708	553.305517021410	909.229780554368	1420.416083424818	332.476380515142	1039.341617874858	1345.569962770324	469.513813005869	1002.539114127298	1430.001113218586	654.233541849508	929.304236841520	1484.204080942953	489.257551229234	981.214542235806	923.507967361253	626.370198004229	920.347592903843	952.451798765898	359.541484886103	979.043335494790	715.018366989667	589.619049722147	888.404255588171	616.615249308491	660.114722990636	939.218330745281	555.628541680648	568.897790212225	923.448322965908	467.041264746553	573.910743472223	985.471602327110	756.488256537964	379.294621149316	911.482122132534	633.499310340657	312.862629543750	1013.261987938899	567.050175367840	366.702680347834	1032.286736460706	504.453849910514	365.352814343101	1015.755218306192	435.071568572726	354.106012081352	947.373613893438	306.742685656140	303.536359445483	1034.796836068936	206.181070786598	354.974250489877	877.310899338703	385.651158301981	584.726004900486	795.449238509209	295.893834194726	656.000429245207	806.513932791827	197.346074578296	587.292652224340	642.568108420268	47.594276193961	569.538338650251	816.758157783882	95.681930672935	595.308264242594	729.569939939567	38.072961846437	639.066096952224	936.701448823087	40.057137825026	617.258931155977	943.112410369969	37.499815291738	391.823160007796	1017.096455996854	37.128216803532	311.355067180687	1096.215433270962	104.271162883811	335.559800167448	1225.713470744133	60.669764415641	307.698755205255	751.395848036218	1096.276233411461	264.812814925796	733.597046726063	834.746434088778	272.386837623482	1090.285414189632	1105.020588838542	780.363302773824	1306.915641660844	1197.156298730609	707.319432057660	
